<svg xmlns="http://www.w3.org/2000/svg" viewBox="0 0 800 800" width="100%" height="100%">
  <defs>
    <linearGradient id="bgGrad" x1="0%" y1="0%" x2="100%" y2="100%">
      <stop offset="0%" stop-color="#020617" />
      <stop offset="40%" stop-color="#0b1329" />
      <stop offset="100%" stop-color="#1e1b4b" />
    </linearGradient>
    <linearGradient id="goldGrad" x1="0%" y1="0%" x2="100%" y2="0%">
      <stop offset="0%" stop-color="#fbbf24" />
      <stop offset="100%" stop-color="#d97706" />
    </linearGradient>
    <linearGradient id="blueGrad" x1="0%" y1="0%" x2="100%" y2="0%">
      <stop offset="0%" stop-color="#3b82f6" />
      <stop offset="100%" stop-color="#1d4ed8" />
    </linearGradient>
    <linearGradient id="cardGrad" x1="0%" y1="0%" x2="0%" y2="100%">
      <stop offset="0%" stop-color="rgba(255, 255, 255, 0.08)" />
      <stop offset="100%" stop-color="rgba(255, 255, 255, 0.01)" />
    </linearGradient>
    <filter id="glow" x="-20%" y="-20%" width="140%" height="140%">
      <feGaussianBlur stdDeviation="15" result="blur" />
      <feComposite in="SourceGraphic" in2="blur" operator="over" />
    </filter>
  </defs>

  <!-- Background -->
  <rect width="800" height="800" fill="url(#bgGrad)" />

  <!-- Futuristic Grid -->
  <g opacity="0.08">
    <path d="M 0,50 L 800,50 M 0,100 L 800,100 M 0,150 L 800,150 M 0,200 L 800,200 M 0,250 L 800,250 M 0,300 L 800,300 M 0,350 L 800,350 M 0,400 L 800,400 M 0,450 L 800,450 M 0,500 L 800,500 M 0,550 L 800,550 M 0,600 L 800,600 M 0,650 L 800,650 M 0,700 L 800,700 M 0,750 L 800,750" stroke="#ffffff" stroke-width="1" />
    <path d="M 50,0 L 50,800 M 100,0 L 100,800 M 150,0 L 150,800 M 200,0 L 200,800 M 250,0 L 250,800 M 300,0 L 300,800 M 350,0 L 350,800 M 400,0 L 400,800 M 450,0 L 450,800 M 500,0 L 500,800 M 550,0 L 550,800 M 600,0 L 600,800 M 650,0 L 650,800 M 700,0 L 700,800 M 750,0 L 750,800" stroke="#ffffff" stroke-width="1" />
  </g>

  <!-- Tech Header -->
  <rect x="50" y="40" width="700" height="44" rx="12" fill="url(#cardGrad)" stroke="rgba(255, 255, 255, 0.1)" stroke-width="1" />
  <circle cx="75" cy="62" r="6" fill="#ef4444" />
  <circle cx="95" cy="62" r="6" fill="#eab308" />
  <circle cx="115" cy="62" r="6" fill="#22c55e" />
  <text x="400" y="68" text-anchor="middle" font-family="'Inter', system-ui, sans-serif" font-size="14" font-weight="700" fill="#94a3b8" letter-spacing="1">
    PRODUCTION BUILD · LAUNCH OVERVIEW
  </text>

  <!-- Title Section -->
  <text x="400" y="150" text-anchor="middle" font-family="'Inter', system-ui, sans-serif" font-size="46" font-weight="900" fill="#ffffff" letter-spacing="3">
    KPSS VATANDAŞLIK
  </text>
  <text x="400" y="200" text-anchor="middle" font-family="'Inter', system-ui, sans-serif" font-size="28" font-weight="800" fill="url(#goldGrad)" letter-spacing="2">
    ENTERPRISE EDTECH ENGINE
  </text>

  <!-- Graphic and Stats Panel -->
  <g transform="translate(100, 240)">
    <!-- Glass Panel -->
    <rect x="0" y="0" width="600" height="280" rx="24" fill="url(#cardGrad)" stroke="rgba(255, 255, 255, 0.12)" stroke-width="1" />
    
    <!-- Scales of Justice Icon in SVG -->
    <g transform="translate(50, 40) scale(1.4)" filter="url(#glow)">
      <path d="M 15,80 L 65,80 M 40,80 L 40,20 M 40,25 Q 40,20 45,20 L 50,20 M 30,20 L 50,20" stroke="url(#goldGrad)" stroke-width="4" stroke-linecap="round" fill="none" />
      <path d="M 10,35 L 70,35" stroke="url(#goldGrad)" stroke-width="4" stroke-linecap="round" fill="none" />
      <circle cx="40" cy="35" r="5" fill="#fbbf24" />
      <path d="M 10,35 L 5,55 L 20,55 Z" stroke="#fbbf24" stroke-width="2" fill="none" />
      <path d="M 2,55 Q 12,65 23,55" stroke="url(#goldGrad)" stroke-width="3" fill="none" />
      <path d="M 70,35 L 65,55 L 80,55 Z" stroke="#fbbf24" stroke-width="2" fill="none" />
      <path d="M 62,55 Q 72,65 83,55" stroke="url(#goldGrad)" stroke-width="3" fill="none" />
    </g>

    <!-- Specs List -->
    <g transform="translate(240, 50)" font-family="'Inter', system-ui, sans-serif" font-size="18" font-weight="700">
      <text x="0" y="30" fill="#ffffff">DATA CAPACITY:</text>
      <text x="180" y="30" fill="#fbbf24">9,000+ QUESTIONS</text>
      
      <text x="0" y="80" fill="#ffffff">STUDY CARDS:</text>
      <text x="180" y="80" fill="#fbbf24">9,000 FLASHCARDS</text>
      
      <text x="0" y="130" fill="#ffffff">ASSESSMENTS:</text>
      <text x="180" y="130" fill="#fbbf24">1,500 UNIQUE TESTS</text>

      <text x="0" y="180" fill="#ffffff">ARCHITECTURE:</text>
      <text x="180" y="180" fill="#3b82f6">LOCAL-FIRST DEPLOYMENT</text>
    </g>
  </g>

  <!-- Tech Stack Pills -->
  <g transform="translate(100, 560)">
    <text x="0" y="-15" font-family="'Inter', system-ui, sans-serif" font-size="14" font-weight="800" fill="#94a3b8" letter-spacing="1">TECHNOLOGY STACK</text>
    
    <!-- Next.js -->
    <rect x="0" y="0" width="105" height="36" rx="8" fill="#0f172a" stroke="rgba(255,255,255,0.15)" stroke-width="1" />
    <text x="52" y="23" text-anchor="middle" font-family="'Inter', system-ui, sans-serif" font-size="13" font-weight="800" fill="#ffffff">Next.js 15</text>

    <!-- React -->
    <rect x="120" y="0" width="105" height="36" rx="8" fill="#0f172a" stroke="rgba(255,255,255,0.15)" stroke-width="1" />
    <text x="172" y="23" text-anchor="middle" font-family="'Inter', system-ui, sans-serif" font-size="13" font-weight="800" fill="#60a5fa">React 19</text>

    <!-- Supabase -->
    <rect x="240" y="0" width="115" height="36" rx="8" fill="#0f172a" stroke="rgba(255,255,255,0.15)" stroke-width="1" />
    <text x="297" y="23" text-anchor="middle" font-family="'Inter', system-ui, sans-serif" font-size="13" font-weight="800" fill="#34d399">Supabase DB</text>

    <!-- Tailwind -->
    <rect x="370" y="0" width="110" height="36" rx="8" fill="#0f172a" stroke="rgba(255,255,255,0.15)" stroke-width="1" />
    <text x="425" y="23" text-anchor="middle" font-family="'Inter', system-ui, sans-serif" font-size="13" font-weight="800" fill="#38bdf8">Tailwind v4</text>

    <!-- TS -->
    <rect x="495" y="0" width="105" height="36" rx="8" fill="#0f172a" stroke="rgba(255,255,255,0.15)" stroke-width="1" />
    <text x="547" y="23" text-anchor="middle" font-family="'Inter', system-ui, sans-serif" font-size="13" font-weight="800" fill="#3178c6">TypeScript</text>
  </g>

  <!-- Links Block -->
  <g transform="translate(100, 640)">
    <rect x="0" y="0" width="600" height="110" rx="16" fill="url(#cardGrad)" stroke="rgba(255,255,255,0.1)" stroke-width="1" />
    
    <text x="30" y="42" font-family="'Inter', system-ui, sans-serif" font-size="16" font-weight="700" fill="#94a3b8">LIVE DEMO:</text>
    <text x="180" y="42" font-family="'Inter', system-ui, sans-serif" font-size="18" font-weight="800" fill="#60a5fa">kpss-vatandaslik-web-app.vercel.app</text>
    
    <text x="30" y="82" font-family="'Inter', system-ui, sans-serif" font-size="16" font-weight="700" fill="#94a3b8">CODE REPO:</text>
    <text x="180" y="82" font-family="'Inter', system-ui, sans-serif" font-size="18" font-weight="800" fill="#ffffff">github.com/Dpehect/KPSS-Vatandaslik-Web-App</text>
  </g>
</svg>
