<svg xmlns="http://www.w3.org/2000/svg" viewBox="0 0 800 800" width="100%" height="100%">
  <defs>
    <!-- Ultra-vibrant mesh-like background gradient -->
    <linearGradient id="vibrantBg" x1="0%" y1="0%" x2="100%" y2="100%">
      <stop offset="0%" stop-color="#ec4899" /> <!-- Pink/Magenta -->
      <stop offset="40%" stop-color="#8b5cf6" /> <!-- Violet -->
      <stop offset="100%" stop-color="#3b82f6" /> <!-- Royal Blue -->
    </linearGradient>
    
    <linearGradient id="goldGrad" x1="0%" y1="0%" x2="100%" y2="100%">
      <stop offset="0%" stop-color="#ffeef0" />
      <stop offset="50%" stop-color="#fef08a" /> <!-- Gold -->
      <stop offset="100%" stop-color="#f59e0b" />
    </linearGradient>

    <linearGradient id="glassGrad" x1="0%" y1="0%" x2="100%" y2="100%">
      <stop offset="0%" stop-color="rgba(255, 255, 255, 0.24)" />
      <stop offset="100%" stop-color="rgba(255, 255, 255, 0.03)" />
    </linearGradient>

    <filter id="shadow" x="-10%" y="-10%" width="120%" height="120%">
      <feDropShadow dx="0" dy="12" stdDeviation="16" flood-color="#000000" flood-opacity="0.45" />
    </filter>

    <filter id="intenseGlow" x="-30%" y="-30%" width="160%" height="160%">
      <feGaussianBlur stdDeviation="20" result="blur" />
      <feComposite in="SourceGraphic" in2="blur" operator="over" />
    </filter>
  </defs>

  <!-- Background -->
  <rect width="800" height="800" fill="url(#vibrantBg)" />

  <!-- Premium Abstract Floating Spheres (Depth & Excitement) -->
  <circle cx="100" cy="150" r="180" fill="#f472b6" opacity="0.4" filter="url(#intenseGlow)" />
  <circle cx="700" cy="650" r="220" fill="#60a5fa" opacity="0.4" filter="url(#intenseGlow)" />
  <circle cx="750" cy="120" r="90" fill="#38bdf8" opacity="0.3" filter="url(#intenseGlow)" />
  <circle cx="50" cy="700" r="130" fill="#a78bfa" opacity="0.3" filter="url(#intenseGlow)" />

  <!-- Sleek Top Banner Info -->
  <rect x="50" y="35" width="700" height="42" rx="21" fill="rgba(255, 255, 255, 0.15)" stroke="rgba(255, 255, 255, 0.3)" stroke-width="1.5" />
  <circle cx="75" cy="56" r="6" fill="#ff5f56" />
  <circle cx="95" cy="56" r="6" fill="#ffbd2e" />
  <circle cx="115" cy="56" r="6" fill="#27c93f" />
  <text x="400" y="62" text-anchor="middle" font-family="'Inter', system-ui, sans-serif" font-size="14" font-weight="900" fill="#ffffff" letter-spacing="2">
    KPSS VATANDAŞLIK · YAYINDA
  </text>

  <!-- Heading -->
  <g filter="url(#shadow)">
    <text x="400" y="145" text-anchor="middle" font-family="'Inter', system-ui, sans-serif" font-size="52" font-weight="900" fill="#ffffff" letter-spacing="4">
      KPSS VATANDAŞLIK
    </text>
    <text x="400" y="195" text-anchor="middle" font-family="'Inter', system-ui, sans-serif" font-size="24" font-weight="900" fill="#fef08a" letter-spacing="3">
      ÖZGÜN SORU VE ÇALIŞMA PLATFORMU
    </text>
  </g>

  <!-- Main Infographic Glass Panel -->
  <rect x="60" y="240" width="680" height="290" rx="30" fill="url(#glassGrad)" stroke="rgba(255, 255, 255, 0.35)" stroke-width="2" filter="url(#shadow)" />
  
  <!-- Scales of Justice (Detailed and Glowing) -->
  <g transform="translate(100, 270) scale(1.6)" filter="url(#intenseGlow)">
    <path d="M 15,80 L 65,80 M 40,80 L 40,20 M 40,25 L 50,20 M 30,20 L 50,20" stroke="url(#goldGrad)" stroke-width="4" stroke-linecap="round" fill="none" />
    <path d="M 10,35 L 70,35" stroke="url(#goldGrad)" stroke-width="5" stroke-linecap="round" fill="none" />
    <circle cx="40" cy="35" r="6" fill="#ffffff" />
    <!-- Left Plate -->
    <path d="M 10,35 L 5,55 L 20,55 Z" stroke="#ffffff" stroke-width="2.5" fill="none" />
    <path d="M 2,55 Q 12,65 23,55" stroke="url(#goldGrad)" stroke-width="4.5" fill="none" />
    <!-- Right Plate -->
    <path d="M 70,35 L 65,55 L 80,55 Z" stroke="#ffffff" stroke-width="2.5" fill="none" />
    <path d="M 62,55 Q 72,65 83,55" stroke="url(#goldGrad)" stroke-width="4.5" fill="none" />
  </g>

  <!-- Spec List -->
  <g transform="translate(300, 265)" font-family="'Inter', system-ui, sans-serif" font-size="20" font-weight="900" fill="#ffffff" filter="url(#shadow)">
    <text x="0" y="35" fill="rgba(255,255,255,0.85)">SORU SAYISI:</text>
    <text x="180" y="35" fill="#fef08a">9.000+ BENZERSİZ</text>
    
    <text x="0" y="90" fill="rgba(255,255,255,0.85)">HAFIZA KARTI:</text>
    <text x="180" y="90" fill="#fef08a">9.000 AKTİF TEKRAR</text>
    
    <text x="0" y="145" fill="rgba(255,255,255,0.85)">DENEME/TEST:</text>
    <text x="180" y="145" fill="#fef08a">1.500 ÖZGÜN TEST</text>

    <text x="0" y="200" fill="rgba(255,255,255,0.85)">ALTYAPI:</text>
    <text x="180" y="200" fill="#60a5fa">SUPABASE / OFFLINE</text>
  </g>

  <!-- Tech Stack Pills (Vibrant & Clean) -->
  <g transform="translate(100, 560)">
    <!-- Next.js -->
    <rect x="0" y="0" width="105" height="38" rx="10" fill="#0f172a" stroke="rgba(255,255,255,0.2)" stroke-width="1.5" />
    <text x="52" y="24" text-anchor="middle" font-family="'Inter', system-ui, sans-serif" font-size="13" font-weight="900" fill="#ffffff">Next.js 15</text>

    <!-- React -->
    <rect x="120" y="0" width="105" height="38" rx="10" fill="#0f172a" stroke="rgba(255,255,255,0.2)" stroke-width="1.5" />
    <text x="172" y="24" text-anchor="middle" font-family="'Inter', system-ui, sans-serif" font-size="13" font-weight="900" fill="#60a5fa">React 19</text>

    <!-- Supabase -->
    <rect x="240" y="0" width="115" height="38" rx="10" fill="#0f172a" stroke="rgba(255,255,255,0.2)" stroke-width="1.5" />
    <text x="297" y="24" text-anchor="middle" font-family="'Inter', system-ui, sans-serif" font-size="13" font-weight="900" fill="#34d399">Supabase</text>

    <!-- Tailwind -->
    <rect x="370" y="0" width="110" height="38" rx="10" fill="#0f172a" stroke="rgba(255,255,255,0.2)" stroke-width="1.5" />
    <text x="425" y="24" text-anchor="middle" font-family="'Inter', system-ui, sans-serif" font-size="13" font-weight="900" fill="#38bdf8">Tailwind v4</text>

    <!-- TS -->
    <rect x="495" y="0" width="105" height="38" rx="10" fill="#0f172a" stroke="rgba(255,255,255,0.2)" stroke-width="1.5" />
    <text x="547" y="24" text-anchor="middle" font-family="'Inter', system-ui, sans-serif" font-size="13" font-weight="900" fill="#3178c6">TypeScript</text>
  </g>

  <!-- URL Links Box (Glassmorphism + Strong Readability) -->
  <g transform="translate(60, 630)">
    <rect x="0" y="0" width="680" height="120" rx="20" fill="rgba(0, 0, 0, 0.45)" stroke="rgba(255,255,255,0.25)" stroke-width="1.5" filter="url(#shadow)" />
    
    <text x="40" y="48" font-family="'Inter', system-ui, sans-serif" font-size="15" font-weight="900" fill="#94a3b8" letter-spacing="1">LIVE DEMO:</text>
    <text x="180" y="48" font-family="'Inter', system-ui, sans-serif" font-size="19" font-weight="900" fill="#60a5fa">kpss-vatandaslik-web-app.vercel.app</text>
    
    <text x="40" y="90" font-family="'Inter', system-ui, sans-serif" font-size="15" font-weight="900" fill="#94a3b8" letter-spacing="1">CODE REPO:</text>
    <text x="180" y="90" font-family="'Inter', system-ui, sans-serif" font-size="19" font-weight="900" fill="#ffffff">github.com/Dpehect/KPSS-Vatandaslik-Web-App</text>
  </g>
</svg>
